<?xml version="1.0" encoding="utf-8"?>
<!-- Generator: Adobe Illustrator 25.0.1, SVG Export Plug-In . SVG Version: 6.00 Build 0)  -->
<svg version="1.1" id="Layer_1" xmlns="http://www.w3.org/2000/svg" xmlns:xlink="http://www.w3.org/1999/xlink" x="0px" y="0px"
	 viewBox="0 0 512 512" style="enable-background:new 0 0 512 512;" xml:space="preserve">
<style type="text/css">
	.st0{fill:#D969B4;}
</style>
<path class="st0" d="M445.49,334.27H188.74l5.73,28.03h235.1c13.49,0,23.49,12.53,20.5,25.68l-4.83,21.26
	c16.37,7.95,27.66,24.73,27.66,44.15c0,27.33-22.35,49.44-49.77,49.04c-26.12-0.38-47.6-21.57-48.31-47.69
	c-0.39-14.27,5.33-27.19,14.72-36.39H205.91c9.09,8.9,14.74,21.31,14.74,35.04c0,27.86-23.23,50.3-51.39,48.99
	c-25-1.16-45.33-21.36-46.64-46.35c-1.01-19.3,9.14-36.31,24.57-45.18l-61.53-300.8H24.45c-11.61,0-21.02-9.41-21.02-21.02V75.02
	C3.43,63.41,12.84,54,24.45,54h89.8c9.99,0,18.59,7.03,20.59,16.81l8.03,39.25H486.9c13.49,0,23.49,12.53,20.5,25.68l-41.4,182.18
	C463.82,327.48,455.31,334.27,445.49,334.27z M360.78,201.14h-42.04v-35.03c0-7.74-6.27-14.01-14.01-14.01h-14.01
	c-7.74,0-14.01,6.27-14.01,14.01v35.03h-42.04c-7.74,0-14.01,6.27-14.01,14.01v14.01c0,7.74,6.27,14.01,14.01,14.01h42.04v35.03
	c0,7.74,6.27,14.01,14.01,14.01h14.01c7.74,0,14.01-6.27,14.01-14.01v-35.03h42.04c7.74,0,14.01-6.27,14.01-14.01v-14.01
	C374.8,207.42,368.52,201.14,360.78,201.14z"/>
<g>
</g>
<g>
</g>
<g>
</g>
<g>
</g>
<g>
</g>
<g>
</g>
<g>
</g>
<g>
</g>
<g>
</g>
<g>
</g>
<g>
</g>
<g>
</g>
<g>
</g>
<g>
</g>
<g>
</g>
</svg>
