<?xml version="1.0" encoding="utf-8"?>
<!-- Generator: Adobe Illustrator 25.0.1, SVG Export Plug-In . SVG Version: 6.00 Build 0)  -->
<svg version="1.1" id="Layer_1" xmlns="http://www.w3.org/2000/svg" xmlns:xlink="http://www.w3.org/1999/xlink" x="0px" y="0px"
	 viewBox="0 0 512 512" style="enable-background:new 0 0 512 512;" xml:space="preserve">
<style type="text/css">
	.st0{fill:none;stroke:#D969B4;stroke-width:8;stroke-miterlimit:10;}
</style>
<path class="st0" d="M440.41,317.25H191.26l5.56,27.2h228.14c13.09,0,22.79,12.15,19.89,24.92L440.16,390
	c15.89,7.71,26.84,24,26.84,42.84c0,26.52-21.69,47.97-48.3,47.59c-25.35-0.36-46.19-20.93-46.88-46.28
	c-0.37-13.84,5.17-26.39,14.28-35.31H207.92c8.82,8.64,14.3,20.68,14.3,34c0,27.04-22.55,48.81-49.87,47.54
	c-24.26-1.13-43.99-20.73-45.26-44.98c-0.98-18.73,8.87-35.23,23.84-43.85L91.23,99.66h-59.4c-11.27,0-20.4-9.13-20.4-20.4v-13.6
	c0-11.27,9.13-20.4,20.4-20.4h87.14c9.69,0,18.04,6.82,19.98,16.31l7.79,38.09h333.84c13.09,0,22.79,12.16,19.89,24.92L460.3,301.37
	C458.19,310.66,449.94,317.25,440.41,317.25z"/>
<g>
</g>
<g>
</g>
<g>
</g>
<g>
</g>
<g>
</g>
<g>
</g>
<g>
</g>
<g>
</g>
<g>
</g>
<g>
</g>
<g>
</g>
<g>
</g>
<g>
</g>
<g>
</g>
<g>
</g>
</svg>
