<?xml version="1.0" encoding="utf-8"?>
<!-- Generator: Adobe Illustrator 25.0.1, SVG Export Plug-In . SVG Version: 6.00 Build 0)  -->
<svg version="1.1" id="Layer_1" xmlns="http://www.w3.org/2000/svg" xmlns:xlink="http://www.w3.org/1999/xlink" x="0px" y="0px"
	 viewBox="0 0 512 512" style="enable-background:new 0 0 512 512;" xml:space="preserve">
<style type="text/css">
	.st0{fill:#FF69B4;}
</style>
<path class="st0" d="M456.86,0.31H54.81c-30.28,0-54.82,24.55-54.82,54.82v402.05c0,30.28,24.55,54.82,54.82,54.82h402.05
	c30.28,0,54.82-24.55,54.82-54.82V55.13C511.68,24.85,487.14,0.31,456.86,0.31z M107.35,438.9c-8.03,0-14.91-5.57-16.69-13.28
	l-17.13-74.24c-1.86-8.08,2.32-16.33,9.94-19.6l79.95-34.26c7.02-3.01,15.18-1.01,20.01,4.9l35.4,43.27
	c55.9-26.23,100.85-71.79,126.53-126.53l-43.27-35.4c-5.91-4.83-7.91-12.99-4.9-20.01l34.27-79.95c3.27-7.62,11.52-11.81,19.6-9.94
	l74.24,17.13c7.77,1.79,13.28,8.71,13.28,16.69C438.58,290.75,290.16,438.9,107.35,438.9z"/>
<g>
</g>
<g>
</g>
<g>
</g>
<g>
</g>
<g>
</g>
<g>
</g>
<g>
</g>
<g>
</g>
<g>
</g>
<g>
</g>
<g>
</g>
<g>
</g>
<g>
</g>
<g>
</g>
<g>
</g>
</svg>
