<?xml version="1.0" encoding="utf-8"?>
<!-- Generator: Adobe Illustrator 25.0.1, SVG Export Plug-In . SVG Version: 6.00 Build 0)  -->
<svg version="1.1" id="Layer_1" xmlns="http://www.w3.org/2000/svg" xmlns:xlink="http://www.w3.org/1999/xlink" x="0px" y="0px"
	 viewBox="0 0 512 512" style="enable-background:new 0 0 512 512;" xml:space="preserve">
<style type="text/css">
	.st0{fill:url(#SVGID_1_);}
</style>
<linearGradient id="SVGID_1_" gradientUnits="userSpaceOnUse" x1="-0.0673" y1="256.153" x2="511.7408" y2="256.153">
	<stop  offset="0" style="stop-color:#FF69B4"/>
	<stop  offset="0.1042" style="stop-color:#F764AF"/>
	<stop  offset="0.2626" style="stop-color:#E257A2"/>
	<stop  offset="0.4552" style="stop-color:#C0428C"/>
	<stop  offset="0.6749" style="stop-color:#90256D"/>
	<stop  offset="0.9106" style="stop-color:#550047"/>
</linearGradient>
<path class="st0" d="M255.89,124.96c-72.62,0-131.19,58.57-131.19,131.19s58.57,131.19,131.19,131.19s131.19-58.57,131.19-131.19
	S328.51,124.96,255.89,124.96z M255.89,341.44c-46.93,0-85.29-38.25-85.29-85.29s38.25-85.29,85.29-85.29s85.29,38.25,85.29,85.29
	S302.82,341.44,255.89,341.44L255.89,341.44z M423.05,119.59c0,17.01-13.7,30.6-30.6,30.6c-17.01,0-30.6-13.7-30.6-30.6
	s13.7-30.6,30.6-30.6S423.05,102.7,423.05,119.59z M509.94,150.65c-1.94-40.99-11.3-77.3-41.33-107.21
	C438.69,13.52,402.39,4.16,361.4,2.1c-42.25-2.4-168.87-2.4-211.12,0C109.4,4.05,73.09,13.41,43.06,43.32S3.79,109.55,1.73,150.54
	c-2.4,42.25-2.4,168.87,0,211.12c1.94,40.99,11.3,77.3,41.33,107.21s66.22,39.28,107.21,41.33c42.25,2.4,168.87,2.4,211.12,0
	c40.99-1.94,77.3-11.3,107.21-41.33c29.91-29.91,39.28-66.22,41.33-107.21C512.34,319.41,512.34,192.9,509.94,150.65L509.94,150.65z
	 M455.36,406.98c-8.91,22.38-26.15,39.62-48.64,48.64c-33.68,13.36-113.61,10.28-150.83,10.28s-117.26,2.97-150.83-10.28
	c-22.38-8.91-39.62-26.15-48.64-48.64C43.06,373.3,46.15,293.38,46.15,256.15s-2.97-117.26,10.28-150.83
	c8.91-22.38,26.15-39.62,48.64-48.64c33.68-13.36,113.61-10.28,150.83-10.28s117.26-2.97,150.83,10.28
	c22.38,8.91,39.62,26.15,48.64,48.64c13.36,33.68,10.28,113.61,10.28,150.83S468.72,373.42,455.36,406.98z"/>
<g>
</g>
<g>
</g>
<g>
</g>
<g>
</g>
<g>
</g>
<g>
</g>
<g>
</g>
<g>
</g>
<g>
</g>
<g>
</g>
<g>
</g>
<g>
</g>
<g>
</g>
<g>
</g>
<g>
</g>
</svg>
