<?xml version="1.0" encoding="utf-8"?>
<!-- Generator: Adobe Illustrator 25.0.1, SVG Export Plug-In . SVG Version: 6.00 Build 0)  -->
<svg version="1.1" id="Layer_1" xmlns="http://www.w3.org/2000/svg" xmlns:xlink="http://www.w3.org/1999/xlink" x="0px" y="0px"
	 viewBox="0 0 512 512" style="enable-background:new 0 0 512 512;" xml:space="preserve">
<style type="text/css">
	.st0{fill:#666666;}
</style>
<path d="M497.36,437.77l-96.96-96.96c-4.38-4.38-10.31-6.81-16.53-6.81h-15.85c26.84-34.33,42.79-77.51,42.79-124.49
	c0-111.75-90.55-202.29-202.29-202.29S6.22,97.76,6.22,209.51s90.55,202.29,202.29,202.29c46.97,0,90.16-15.95,124.49-42.79v15.85
	c0,6.22,2.43,12.16,6.81,16.53l96.96,96.96c9.14,9.14,23.93,9.14,32.97,0l27.52-27.52C506.41,461.7,506.41,446.92,497.36,437.77z
	 M208.51,334c-68.76,0-124.49-55.63-124.49-124.49c0-68.76,55.63-124.49,124.49-124.49c68.76,0,124.49,55.63,124.49,124.49
	C333,278.27,277.37,334,208.51,334z"/>
<circle class="st0" cx="263" cy="268" r="22"/>
<g>
</g>
<g>
</g>
<g>
</g>
<g>
</g>
<g>
</g>
<g>
</g>
<g>
</g>
<g>
</g>
<g>
</g>
<g>
</g>
<g>
</g>
<g>
</g>
<g>
</g>
<g>
</g>
<g>
</g>
</svg>
