<?xml version="1.0" encoding="utf-8"?>
<!-- Generator: Adobe Illustrator 25.0.1, SVG Export Plug-In . SVG Version: 6.00 Build 0)  -->
<svg version="1.1" id="Layer_1" xmlns="http://www.w3.org/2000/svg" xmlns:xlink="http://www.w3.org/1999/xlink" x="0px" y="0px"
	 viewBox="0 0 512 512" style="enable-background:new 0 0 512 512;" xml:space="preserve">
<style type="text/css">
	.st0{fill:#00FFFF;}
</style>
<g>
	<path class="st0" d="M264,54c26.88,0,52.93,5.26,77.45,15.63c23.69,10.02,44.98,24.37,63.26,42.66s32.64,39.57,42.66,63.26
		C457.74,200.07,463,226.12,463,253s-5.26,52.93-15.63,77.45c-10.02,23.69-24.37,44.98-42.66,63.26s-39.57,32.64-63.26,42.66
		C316.93,446.74,290.88,452,264,452s-52.93-5.26-77.45-15.63c-23.69-10.02-44.98-24.37-63.26-42.66s-32.64-39.57-42.66-63.26
		C70.26,305.93,65,279.88,65,253s5.26-52.93,15.63-77.45c10.02-23.69,24.37-44.98,42.66-63.26s39.57-32.64,63.26-42.66
		C211.07,59.26,237.12,54,264,54 M264,29C140.29,29,40,129.29,40,253s100.29,224,224,224s224-100.29,224-224S387.71,29,264,29
		L264,29z"/>
</g>
<g>
	<circle class="st0" cx="264" cy="249" r="39"/>
</g>
<g>
	<circle class="st0" cx="156" cy="249" r="39"/>
</g>
<g>
	<circle class="st0" cx="369" cy="249" r="39"/>
</g>
<g>
</g>
<g>
</g>
<g>
</g>
<g>
</g>
<g>
</g>
<g>
</g>
<g>
</g>
<g>
</g>
<g>
</g>
<g>
</g>
<g>
</g>
<g>
</g>
<g>
</g>
<g>
</g>
<g>
</g>
</svg>
