<?xml version="1.0" encoding="utf-8"?>
<!-- Generator: Adobe Illustrator 25.0.1, SVG Export Plug-In . SVG Version: 6.00 Build 0)  -->
<svg version="1.1" id="Layer_1" xmlns="http://www.w3.org/2000/svg" xmlns:xlink="http://www.w3.org/1999/xlink" x="0px" y="0px"
	 viewBox="0 0 512 512" style="enable-background:new 0 0 512 512;" xml:space="preserve">
<path d="M303.25,410h-63c-8.7,0-15.75,7.05-15.75,15.75v31.5c0,8.7,7.05,15.75,15.75,15.75h63c8.7,0,15.75-7.05,15.75-15.75v-31.5
	C319,417.05,311.95,410,303.25,410z M177.25,347H130V47.75c0-8.7-7.05-15.75-15.75-15.75h-31.5C74.05,32,67,39.05,67,47.75V347
	H19.75c-13.97,0-21.04,16.97-11.11,26.88l78.75,94.5c6.15,6.15,16.12,6.15,22.27,0l78.75-94.5C198.27,363.99,191.25,347,177.25,347z
	 M429.25,158h-189c-8.7,0-15.75,7.05-15.75,15.75v31.5c0,8.7,7.05,15.75,15.75,15.75h189c8.7,0,15.75-7.05,15.75-15.75v-31.5
	C445,165.05,437.95,158,429.25,158z M366.25,284h-126c-8.7,0-15.75,7.05-15.75,15.75v31.5c0,8.7,7.05,15.75,15.75,15.75h126
	c8.7,0,15.75-7.05,15.75-15.75v-31.5C382,291.05,374.95,284,366.25,284z M492.25,32h-252c-8.7,0-15.75,7.05-15.75,15.75v31.5
	c0,8.7,7.05,15.75,15.75,15.75h252c8.7,0,15.75-7.05,15.75-15.75v-31.5C508,39.05,500.95,32,492.25,32z"/>
<g>
</g>
<g>
</g>
<g>
</g>
<g>
</g>
<g>
</g>
<g>
</g>
<g>
</g>
<g>
</g>
<g>
</g>
<g>
</g>
<g>
</g>
<g>
</g>
<g>
</g>
<g>
</g>
<g>
</g>
</svg>
