<?xml version="1.0" encoding="utf-8"?>
<!-- Generator: Adobe Illustrator 25.0.1, SVG Export Plug-In . SVG Version: 6.00 Build 0)  -->
<svg version="1.1" id="Layer_1" xmlns="http://www.w3.org/2000/svg" xmlns:xlink="http://www.w3.org/1999/xlink" x="0px" y="0px"
	 viewBox="0 0 512 512" style="enable-background:new 0 0 512 512;" xml:space="preserve">
<path d="M301.71,417.94h-62.99c-8.7,0-15.75,7.05-15.75,15.75v31.49c0,8.7,7.05,15.75,15.75,15.75h62.99
	c8.7,0,15.75-7.05,15.75-15.75v-31.49C317.46,424.99,310.41,417.94,301.71,417.94z M18.26,165.98H65.5v299.2
	c0,8.7,7.05,15.75,15.75,15.75h31.49c8.7,0,15.75-7.05,15.75-15.75v-299.2h47.24c13.99,0,21.04-16.97,11.13-26.88l-78.74-94.48
	c-6.15-6.14-16.11-6.14-22.26,0L7.13,139.1C-2.75,148.99,4.25,165.98,18.26,165.98z M427.69,165.98H238.72
	c-8.7,0-15.75,7.05-15.75,15.75v31.49c0,8.7,7.05,15.75,15.75,15.75h188.97c8.7,0,15.75-7.05,15.75-15.75v-31.49
	C443.44,173.03,436.39,165.98,427.69,165.98z M364.7,291.96H238.72c-8.7,0-15.75,7.05-15.75,15.75v31.49
	c0,8.7,7.05,15.75,15.75,15.75H364.7c8.7,0,15.75-7.05,15.75-15.75v-31.49C380.45,299.01,373.4,291.96,364.7,291.96z M490.68,40
	H238.72c-8.7,0-15.75,7.05-15.75,15.75v31.49c0,8.7,7.05,15.75,15.75,15.75h251.96c8.7,0,15.75-7.05,15.75-15.75V55.75
	C506.43,47.05,499.38,40,490.68,40z"/>
<g>
</g>
<g>
</g>
<g>
</g>
<g>
</g>
<g>
</g>
<g>
</g>
<g>
</g>
<g>
</g>
<g>
</g>
<g>
</g>
<g>
</g>
<g>
</g>
<g>
</g>
<g>
</g>
<g>
</g>
</svg>
