<?xml version="1.0" encoding="utf-8"?>
<!-- Generator: Adobe Illustrator 25.0.1, SVG Export Plug-In . SVG Version: 6.00 Build 0)  -->
<svg version="1.1" id="Layer_1" xmlns="http://www.w3.org/2000/svg" xmlns:xlink="http://www.w3.org/1999/xlink" x="0px" y="0px"
	 viewBox="0 0 512 512" style="enable-background:new 0 0 512 512;" xml:space="preserve">
<style type="text/css">
	.st0{fill:#F7FF03;}
</style>
<path class="st0" d="M483.18,180.62l-138.22-20.12L283.19,35.47c-5.55-11.17-16.38-16.82-27.22-16.82
	c-10.77,0-21.52,5.57-27.09,16.82l-61.79,125.01l-138.23,20.1c-24.79,3.59-34.72,34.08-16.75,51.55l100,97.27L88.44,466.79
	c-3.36,19.62,12.3,35.37,29.85,35.37c4.66,0,9.44-1.1,14.04-3.54l123.66-64.86l123.65,64.88c4.59,2.41,9.37,3.5,14,3.5
	c17.56,0,33.26-15.69,29.9-35.32l-23.64-137.39l100.01-97.25C517.9,214.71,507.97,184.21,483.18,180.62L483.18,180.62z
	 M368.21,296.96L351.1,313.6l4.04,23.49l18.43,107.13l-96.44-50.61L256,382.53L256.03,83l48.19,97.54l10.56,21.37l23.62,3.44
	l107.87,15.7L368.21,296.96z"/>
<g>
</g>
<g>
</g>
<g>
</g>
<g>
</g>
<g>
</g>
<g>
</g>
<g>
</g>
<g>
</g>
<g>
</g>
<g>
</g>
<g>
</g>
<g>
</g>
<g>
</g>
<g>
</g>
<g>
</g>
</svg>
